#N canvas 603 73 575 441 10;
#X declare -path psycho;
#X obj 119 160 openpanel;
#X obj 119 141 bng 15 250 50 0 empty empty insert_sound 17 7 0 10 -262144
-1 -1;
#N canvas 272 151 301 173 sound1 0;
#X obj 42 105 soundfiler;
#X obj 42 36 inlet;
#X obj 42 62 pack s \$0;
#X obj 126 109 array define \$0-sample;
#X msg 42 84 read -resize \$1 \$2-sample;
#X connect 1 0 2 0;
#X connect 2 0 4 0;
#X connect 4 0 0 0;
#X restore 119 181 pd sound1;
#N canvas 0 0 450 300 (subpatch) 0;
#X array barks_\$0 24 float 3;
#A 0 0 0 0 0 0 0 0 0 0 0 0 0 0 0 0 0 0 0 0 0 0 0 0 0;
#X coords 0 1 24 0 350 140 1 0 0;
#X restore 89 244 graph;
#N canvas 210 180 248 169 player 0;
#X obj 72 118 outlet~;
#X obj 72 37 inlet;
#X obj 72 81 tabplay~ \$0-sample;
#X connect 1 0 2 0;
#X connect 2 0 0 0;
#X restore 231 135 pd player;
#X obj 231 111 bng 15 250 50 0 empty empty Play 17 7 0 10 -262144 -1
-1;
#X text 75 50 energy per critical band/bark;
#X msg 313 129 1024 2;
#X obj 231 159 barks~ 2048 4;
#X obj 231 191 array set barks_\$0;
#X text 364 128 window size / overlap;
#X text 322 160 window size / overlap;
#X obj 357 39 declare -path psycho;
#X connect 0 0 2 0;
#X connect 1 0 0 0;
#X connect 4 0 8 0;
#X connect 5 0 4 0;
#X connect 7 0 8 1;
#X connect 8 0 9 0;
