#N canvas 610 54 648 435 10;
#X floatatom 107 84 0 0 0 0 - - -;
#X floatatom 107 281 0 0 0 0 - - -;
#X text 319 159 Vanilla implementation;
#X obj 206 266 expr tan($f1/13.3)*4000/3;
#X obj 206 149 moses 2.17007;
#X obj 282 234 expr 1960 * ($f1 + 0.53) / (26.28 - $f1);
#X obj 226 177 moses 20.1;
#X obj 282 200 expr ($f1 + 4.422) / 1.22;
#X floatatom 281 312 0 0 0 0 - - -;
#X text 185 76 Convert barks to hertz;
#X obj 107 189 bark2hz;
#X text 111 66 barks;
#X text 105 303 hz;
#X text 280 334 hz;
#X connect 0 0 4 0;
#X connect 0 0 10 0;
#X connect 3 0 8 0;
#X connect 4 0 3 0;
#X connect 4 1 6 0;
#X connect 5 0 8 0;
#X connect 6 0 5 0;
#X connect 6 1 7 0;
#X connect 7 0 5 0;
#X connect 10 0 1 0;
