#N canvas 184 115 833 481 10;
#X msg 276 217 1 1 1;
#X obj 105 166 bng 15 250 50 0 empty empty empty 17 7 0 10 -228856
-1 -1;
#X obj 150 369 nbx 10 14 -1e+37 1e+37 0 0 empty empty empty 0 -8 0
10 -228856 -1 -1 0.57571 256;
#X obj 213 339 nbx 10 14 -1e+37 1e+37 0 0 empty empty empty 0 -8 0
10 -228856 -1 -1 0.6898 256;
#X obj 150 310 commonality;
#X obj 105 274 salience;
#X obj 213 274 salience;
#X obj 105 191 trigger bang bang bang, f 29;
#N canvas 519 150 464 369 3-or-more 0;
#X msg 316 137 1 1 1;
#X msg 236 137 200 300 500;
#X msg 157 137 300 400 600;
#X obj 79 79 bng 15 250 50 0 empty empty empty 17 7 0 10 -228856 -1
-1;
#X msg 79 137 140 280 560;
#X obj 116 203 salience;
#X obj 206 203 salience;
#X obj 271 203 salience;
#X obj 79 105 trigger bang bang bang, f 40;
#X text 75 31 The argument can specify 3 or more pitches. The output
is then a matrix of all the pitch combinations.;
#X obj 169 238 commonality 3;
#X obj 244 265 print commonality;
#X obj 169 295 print correlation;
#X connect 0 0 5 1;
#X connect 0 0 6 1;
#X connect 0 0 7 1;
#X connect 1 0 7 0;
#X connect 2 0 6 0;
#X connect 3 0 8 0;
#X connect 4 0 5 0;
#X connect 5 0 10 0;
#X connect 6 0 10 1;
#X connect 7 0 10 2;
#X connect 8 0 4 0;
#X connect 8 1 1 0;
#X connect 8 1 2 0;
#X connect 8 2 0 0;
#X connect 10 0 12 0;
#X connect 10 1 11 0;
#X restore 278 425 pd 3-or-more;
#X msg 105 217 100 200 300;
#X text 131 308 A;
#X text 225 310 B;
#X msg 190 216 200 400 600;
#X text 255 369 Correlation between A & B;
#X text 315 339 Commonality between A & B;
#X text 188 25 Calculate Pitch Commonality. This object needs Pitch
Salience Profiles as the input for the pitches. By default \, it calculates
the Pitch Commonality of two input pitches.;
#X text 188 68 The Pitch Commonality is a Pearson correlation coefficient
between Tone Salience profiles. The relationship increases according
to common Tone Saliences. It is equal to 1 in the case of equal spectra
and -1 in the case of complementary sonorities.;
#X msg 673 209 1 1 1;
#X obj 502 158 bng 15 250 50 0 empty empty empty 17 7 0 10 -228856
-1 -1;
#X obj 502 266 salience;
#X obj 610 266 salience;
#X obj 502 183 trigger bang bang bang, f 29;
#X msg 502 209 100 200 300;
#X msg 587 208 200 400 600;
#X obj 529 344 nbx 10 18 -1e+37 1e+37 0 0 empty empty empty 0 -8 0
14 -228856 -1 -1 0.573521 256;
#N canvas 430 111 602 579 commonality 0;
#X obj 110 267 -;
#X obj 84 372 *;
#X obj 221 269 -;
#X obj 110 191 trigger float float;
#X msg 163 137 0;
#X obj 148 424 sqrt;
#X obj 221 371 sqrt;
#X obj 206 455 *;
#X obj 191 480 /;
#X obj 57 281 t b b b;
#X obj 221 347 float;
#X obj 57 422 float;
#X obj 148 399 float;
#X obj 360 22 inlet;
#X obj 57 22 inlet;
#X obj 191 511 outlet;
#X text 243 511 Pitch-Commonality;
#X obj 413 66 list length;
#X msg 413 88 resize \$1;
#X obj 413 110 array define Sal2_\$0;
#X obj 379 131 array set Sal2_\$0;
#X obj 361 153 expr avg("Sal2_\$0");
#X obj 360 66 t l l l;
#X obj 408 212 list length;
#X msg 408 234 resize \$1;
#X obj 355 212 t l l l;
#X obj 408 256 array define Sal1_\$0;
#X obj 374 277 array set Sal1_\$0;
#X obj 356 299 expr avg("Sal1_\$0");
#X obj 110 219 tabread Sal1_\$0;
#X obj 221 216 tabread Sal2_\$0;
#X obj 361 178 s \$0-avg2;
#X obj 236 243 r \$0-avg2;
#X obj 356 323 s \$0-avg1;
#X obj 125 243 r \$0-avg1;
#X obj 163 166 s \$0-init;
#N canvas 201 23 207 186 sum 0;
#X obj 75 94 +;
#X obj 105 101 f;
#X obj 90 72 r \$0-init;
#X obj 75 31 inlet;
#X obj 75 132 outlet;
#X connect 0 0 1 0;
#X connect 0 0 4 0;
#X connect 1 0 0 1;
#X connect 2 0 0 1;
#X connect 3 0 0 0;
#X restore 248 321 pd sum;
#X obj 248 297 pow 2;
#N canvas 201 23 207 186 sum 0;
#X obj 75 94 +;
#X obj 105 101 f;
#X obj 90 72 r \$0-init;
#X obj 75 31 inlet;
#X obj 75 132 outlet;
#X connect 0 0 1 0;
#X connect 0 0 4 0;
#X connect 1 0 0 1;
#X connect 2 0 0 1;
#X connect 3 0 0 0;
#X restore 84 396 pd sum;
#N canvas 201 23 207 186 sum 0;
#X obj 75 94 +;
#X obj 105 101 f;
#X obj 90 72 r \$0-init;
#X obj 75 31 inlet;
#X obj 75 132 outlet;
#X connect 0 0 1 0;
#X connect 0 0 4 0;
#X connect 1 0 0 1;
#X connect 2 0 0 1;
#X connect 3 0 0 0;
#X restore 175 376 pd sum;
#X obj 175 352 pow 2;
#X obj 110 141 until;
#X obj 110 166 f;
#X obj 136 166 + 1;
#X msg 110 120 120;
#X obj 57 97 trigger bang bang bang list;
#X connect 0 0 40 0;
#X connect 0 0 1 0;
#X connect 1 0 38 0;
#X connect 2 0 37 0;
#X connect 2 0 1 1;
#X connect 3 0 29 0;
#X connect 3 1 30 0;
#X connect 4 0 35 0;
#X connect 4 0 42 1;
#X connect 5 0 7 0;
#X connect 6 0 7 1;
#X connect 7 0 8 1;
#X connect 8 0 15 0;
#X connect 9 0 11 0;
#X connect 9 1 12 0;
#X connect 9 2 10 0;
#X connect 10 0 6 0;
#X connect 11 0 8 0;
#X connect 12 0 5 0;
#X connect 13 0 22 0;
#X connect 14 0 45 0;
#X connect 17 0 18 0;
#X connect 18 0 19 0;
#X connect 21 0 31 0;
#X connect 22 0 21 0;
#X connect 22 1 20 0;
#X connect 22 2 17 0;
#X connect 23 0 24 0;
#X connect 24 0 26 0;
#X connect 25 0 28 0;
#X connect 25 1 27 0;
#X connect 25 2 23 0;
#X connect 28 0 33 0;
#X connect 29 0 0 0;
#X connect 30 0 2 0;
#X connect 32 0 2 1;
#X connect 34 0 0 1;
#X connect 36 0 10 1;
#X connect 37 0 36 0;
#X connect 38 0 11 1;
#X connect 39 0 12 1;
#X connect 40 0 39 0;
#X connect 41 0 42 0;
#X connect 42 0 43 0;
#X connect 42 0 3 0;
#X connect 43 0 42 1;
#X connect 44 0 41 0;
#X connect 45 0 9 0;
#X connect 45 1 44 0;
#X connect 45 2 4 0;
#X connect 45 3 25 0;
#X restore 529 304 pd commonality;
#X text 624 303 <= vanilla;
#X text 545 369 Correlation;
#X connect 0 0 5 1;
#X connect 0 0 6 1;
#X connect 1 0 7 0;
#X connect 4 0 2 0;
#X connect 4 1 3 0;
#X connect 5 0 4 0;
#X connect 6 0 4 1;
#X connect 7 0 9 0;
#X connect 7 1 12 0;
#X connect 7 2 0 0;
#X connect 9 0 5 0;
#X connect 12 0 6 0;
#X connect 17 0 19 1;
#X connect 17 0 20 1;
#X connect 18 0 21 0;
#X connect 19 0 25 0;
#X connect 20 0 25 1;
#X connect 21 0 22 0;
#X connect 21 1 23 0;
#X connect 21 2 17 0;
#X connect 22 0 19 0;
#X connect 23 0 20 0;
#X connect 25 0 24 0;
