#N canvas 327 23 1020 668 10;
#X obj 482 24 cnv 15 511 598 empty empty empty 20 12 0 14 -228856 -66577
0;
#N canvas 0 22 1387 856 (subpatch) 0;
#X array Curva 1250 float 0;
#X coords 0 0 1251 1 512 600 1;
#X restore 481 23 graph;
#X msg 144 345 500 1000 1500 2000;
#X msg 175 382 0.9 0.8 0.4 0.3;
#X msg 129 318 100 200 300 400;
#X text 438 625 Cents;
#X text 476 626 0;
#X text 510 626 100;
#X text 551 626 200;
#X text 592 626 300;
#X text 633 626 400;
#X text 674 626 500;
#X text 715 626 600;
#X text 756 626 700;
#X text 797 626 800;
#X text 838 626 900;
#X text 876 626 1000;
#X text 917 626 1100;
#X text 958 626 1200;
#N canvas 451 23 280 264 freq-amps 0;
#X obj 120 52 inlet;
#X obj 167 190 outlet;
#X obj 99 189 outlet;
#X obj 68 119 t b b;
#X obj 68 87 bng 15 250 50 0 empty \$0-Go! empty 17 7 0 10 -228856
-1 -1;
#X obj 99 155 list;
#X obj 167 154 list;
#X obj 68 52 inlet;
#N canvas 240 57 348 317 get-lists 0;
#X obj 205 86 sel 0;
#X obj 94 219 list store;
#X msg 94 183 append \$1;
#X obj 178 219 list store;
#X msg 178 183 append \$1;
#X obj 205 114 t b b b;
#X msg 95 103 \$2;
#X msg 142 103 \$3;
#X obj 142 59 trigger l f;
#X obj 142 35 inlet;
#X obj 178 250 outlet;
#X obj 94 250 outlet;
#X connect 0 0 5 0;
#X connect 1 0 11 0;
#X connect 2 0 1 0;
#X connect 3 0 10 0;
#X connect 4 0 3 0;
#X connect 5 0 1 1;
#X connect 5 0 3 1;
#X connect 5 1 1 0;
#X connect 5 2 3 0;
#X connect 6 0 2 0;
#X connect 7 0 4 0;
#X connect 8 0 7 0;
#X connect 8 0 6 0;
#X connect 8 1 0 0;
#X connect 9 0 8 0;
#X restore 120 88 pd get-lists;
#X connect 0 0 8 0;
#X connect 3 0 5 0;
#X connect 3 1 6 0;
#X connect 4 0 3 0;
#X connect 5 0 2 0;
#X connect 6 0 1 0;
#X connect 7 0 4 0;
#X connect 8 0 5 1;
#X connect 8 1 6 1;
#X restore 35 361 pd freq-amps;
#X floatatom 104 187 5 0 0 0 - - -;
#X floatatom 38 213 5 4 50 0 - - -;
#X msg 38 234 npeak \$1;
#X obj 104 210 sig~ 300;
#X obj 104 279 sigmund~ -npts 2048 -hop 1024 -npeak 10 peaks;
#X obj 35 325 bng 17 250 50 0 empty empty empty 17 7 0 10 -228856 -1
-1;
#X text 29 305 Do it;
#X obj 104 234 phasor~;
#X obj 129 471 print Scale;
#X obj 104 258 expr~ $v1*2-1;
#N canvas 397 149 458 491 set-table 0;
#X obj 90 53 inlet;
#X obj 196 253 array set Curva;
#X obj 196 286 array max Curva;
#X obj 90 286 array min Curva;
#X msg 175 381 \; Curva bounds 0 \$2 1251 \$1;
#X floatatom 154 318 5 0 0 0 - - -;
#X floatatom 196 318 5 0 0 0 - - -;
#X obj 175 343 pack;
#X obj 252 326 loadbang;
#X msg 252 349 1 0;
#X obj 271 179 list length;
#X obj 90 178 trigger bang bang list list;
#X obj 271 210 array size Curva;
#X connect 0 0 11 0;
#X connect 2 0 6 0;
#X connect 3 0 5 0;
#X connect 5 0 7 0;
#X connect 6 0 7 1;
#X connect 7 0 4 0;
#X connect 8 0 9 0;
#X connect 9 0 4 0;
#X connect 10 0 12 0;
#X connect 11 0 3 0;
#X connect 11 1 2 0;
#X connect 11 2 1 0;
#X connect 11 3 10 0;
#X restore 222 469 pd set-table;
#X obj 129 418 curve.gen 1250 0;
#X text 98 42 Generate roughness curves and spectrum's scale;
#X text 236 416 <= range in cents and start interval;
#X obj 250 186 loadbang;
#X msg 250 219 \; pd dsp 1;
#X text 100 68 This is an abstraction that uses the [roughness] external.
, f 48;
#X connect 2 0 31 0;
#X connect 3 0 31 1;
#X connect 4 0 31 0;
#X connect 19 0 31 0;
#X connect 19 1 31 1;
#X connect 20 0 23 0;
#X connect 21 0 22 0;
#X connect 22 0 24 0;
#X connect 23 0 27 0;
#X connect 24 0 19 1;
#X connect 25 0 19 0;
#X connect 27 0 29 0;
#X connect 29 0 24 0;
#X connect 31 0 28 0;
#X connect 31 1 30 0;
#X connect 34 0 35 0;
