#N canvas 494 145 601 311 10;
#X obj 87 58 inlet;
#X obj 132 58 inlet;
#X obj 87 244 outlet;
#N canvas 433 87 373 491 scale 0;
#X obj 152 224 -;
#X obj 125 101 pack float float;
#X obj 218 58 inlet;
#X obj 125 186 t f f;
#X obj 152 271 change;
#X obj 125 127 swap;
#X obj 152 426 outlet;
#X msg 184 196 0;
#X obj 152 294 sel -1 1;
#X obj 125 55 inlet;
#X obj 152 385 list store;
#X msg 152 348 append \$1;
#X text 203 428 Scale;
#X obj 152 247 expr $f1/abs($f1);
#X obj 152 323 v cents;
#X obj 146 151 v cents;
#X obj 82 348 r \$0-done;
#X text 183 224 roughness diference;
#X text 124 34 Cents;
#X text 220 35 Roughness;
#X obj 185 175 r \$0-init;
#X obj 223 353 r \$0-init;
#X connect 0 0 13 0;
#X connect 1 0 5 0;
#X connect 2 0 1 1;
#X connect 3 0 0 1;
#X connect 3 1 0 0;
#X connect 4 0 8 0;
#X connect 5 0 3 0;
#X connect 5 1 15 0;
#X connect 7 0 0 1;
#X connect 7 0 4 0;
#X connect 8 0 14 0;
#X connect 8 1 14 0;
#X connect 9 0 1 0;
#X connect 10 0 6 0;
#X connect 11 0 10 0;
#X connect 13 0 4 0;
#X connect 14 0 11 0;
#X connect 16 0 10 0;
#X connect 20 0 7 0;
#X connect 21 0 10 1;
#X restore 87 156 pd scale;
#X text 54 120 cents;
#X text 90 39 freq;
#X text 136 37 amp;
#X obj 202 244 outlet;
#X obj 202 57 inlet;
#N canvas 467 23 635 720 curve 0;
#X obj 369 538 list append;
#X obj 190 193 until;
#X obj 504 540 list append;
#X obj 163 75 inlet;
#X obj 525 75 inlet;
#X text 147 52 frequencies;
#X text 507 52 amplitudes;
#X obj 369 584 outlet;
#X obj 504 583 outlet;
#X obj 217 587 outlet;
#X obj 504 484 trigger l l;
#X obj 369 392 trigger bang float bang;
#X msg 232 192 0;
#X obj 217 219 f;
#X text 376 370 Ratios;
#X obj 163 119 trigger bang bang list bang;
#X obj 369 458 list;
#X obj 504 460 list;
#X obj 163 171 t b f;
#X obj 150 241 s \$0-done;
#N canvas 692 156 375 353 list-mul 0;
#X obj 84 47 inlet;
#X obj 148 165 *;
#X obj 166 47 inlet;
#X obj 148 240 list store, f 12;
#X msg 148 200 append \$1;
#X obj 84 87 trigger bang list bang;
#X obj 148 275 outlet;
#N canvas 353 233 299 282 drip 0;
#X obj 81 101 until;
#X obj 94 184 list store;
#X obj 112 68 t b b l;
#X obj 81 126 f;
#X obj 119 127 + 1;
#X msg 131 101 0, f 2;
#X msg 81 158 get \$1 1;
#X obj 112 36 inlet;
#X obj 94 214 outlet;
#X connect 0 0 3 0;
#X connect 1 0 8 0;
#X connect 1 1 0 1;
#X connect 2 0 0 0;
#X connect 2 1 5 0;
#X connect 2 2 1 1;
#X connect 3 0 4 0;
#X connect 3 0 6 0;
#X connect 4 0 3 1;
#X connect 5 0 3 1;
#X connect 6 0 1 0;
#X connect 7 0 2 0;
#X restore 148 128 pd drip;
#X connect 0 0 5 0;
#X connect 1 0 4 0;
#X connect 2 0 1 1;
#X connect 3 0 6 0;
#X connect 4 0 3 0;
#X connect 5 0 3 0;
#X connect 5 1 7 0;
#X connect 5 2 3 1;
#X connect 7 0 1 0;
#X restore 396 509 pd list-mul;
#X obj 369 485 t l l;
#X text 275 219 <= Step;
#X text 456 171 <= Step;
#X text 507 606 Duplicated amplitude list, f 11;
#X text 341 611 Frequency list + shifted frequency list, f 17;
#N canvas 523 256 435 304 ratio 0;
#X obj 208 200 outlet;
#X obj 78 69 inlet;
#X text 186 218 interval in freq;
#X obj 222 74 inlet;
#X text 252 112 cents to ratio;
#X obj 223 131 expr pow(2 \, $f1/1200);
#X obj 208 174 /;
#X text 34 134 ratio;
#X text 228 48 interval start;
#X obj 78 130 expr pow(2 \, $f1/1200);
#X text 80 45 cents;
#X connect 1 0 9 0;
#X connect 3 0 5 0;
#X connect 5 0 6 1;
#X connect 6 0 0 0;
#X connect 9 0 6 0;
#X restore 369 347 pd ratio;
#X obj 217 271 t f f;
#X text 49 145 Range in cents =>;
#X obj 250 219 + 1;
#X text 174 586 Cents;
#X obj 414 169 * -1;
#X text 449 105 interval start in cents, f 9;
#X obj 163 145 f \$1;
#X obj 414 113 f \$2;
#X obj 321 159 s \$0-init;
#X connect 0 0 7 0;
#X connect 1 0 13 0;
#X connect 2 0 8 0;
#X connect 3 0 15 0;
#X connect 4 0 17 1;
#X connect 10 0 2 0;
#X connect 10 1 2 1;
#X connect 11 0 16 0;
#X connect 11 1 20 1;
#X connect 11 2 17 0;
#X connect 12 0 13 1;
#X connect 13 0 27 0;
#X connect 13 0 29 0;
#X connect 15 0 33 0;
#X connect 15 1 12 0;
#X connect 15 2 16 1;
#X connect 15 3 34 0;
#X connect 15 3 35 0;
#X connect 16 0 21 0;
#X connect 17 0 10 0;
#X connect 18 0 19 0;
#X connect 18 1 1 0;
#X connect 20 0 0 1;
#X connect 21 0 0 0;
#X connect 21 1 20 0;
#X connect 26 0 11 0;
#X connect 27 0 9 0;
#X connect 27 1 26 0;
#X connect 29 0 13 1;
#X connect 31 0 26 1;
#X connect 33 0 18 0;
#X connect 34 0 31 0;
#X restore 87 97 pd curve;
#N canvas 407 263 323 250 list 0;
#X obj 100 49 inlet;
#X obj 100 116 list store;
#X msg 100 89 append \$1 \, bang;
#X obj 100 181 outlet;
#X obj 100 143 list split \$1;
#X connect 0 0 2 0;
#X connect 1 0 4 0;
#X connect 2 0 1 0;
#X connect 4 0 3 0;
#X connect 4 1 1 1;
#X restore 202 201 pd list;
#X obj 202 156 psycho/roughness;
#X text 351 127 Alexandre Torres Porres (2019);
#X text 349 146 Part of PSYCHO \; https://github.com/porres/pd-psycho
;
#X connect 0 0 9 0;
#X connect 1 0 9 1;
#X connect 3 0 2 0;
#X connect 8 0 11 0;
#X connect 9 0 3 0;
#X connect 9 1 11 0;
#X connect 9 2 11 1;
#X connect 10 0 7 0;
#X connect 11 0 3 1;
#X connect 11 0 10 0;
