#N canvas 654 82 484 514 10;
#X text 142 49 convert dB to loudness in phons \, it takes a dB value
(right inlet) and a value in hertz (left inlet), f 33;
#X floatatom 240 178 5 0 0 0 - - -;
#X floatatom 177 177 5 0 0 0 - - -;
#X obj 177 241 nbx 5 14 -1e+37 1e+37 0 0 empty empty empty 0 -8 0 10
-228856 -1 -1 0 256;
#X obj 87 61 db2phon;
#X text 238 158 Hertz;
#X text 176 158 dB;
#X obj 177 206 db2phon 100;
#X text 48 305 The unit measure of loudess (perceived intensity) is
phons. Two different frequencies at 60 decibel may have a different
loudness because the human hearing sensitivity varies with frequency.
, f 61;
#X text 48 359 The loudness curves shows this variation and uses 1Khz
as the reference value. Therefore \, 60 phons means "as loud as a 60
dB \, 1000 Hz tone", f 61;
#X text 48 279 Phons:;
#X text 48 403 It is useful to plot equal loudness curves which show
that variation for the average human ear. These can then be used to
adjust the sound gain.;
#X connect 1 0 7 1;
#X connect 2 0 7 0;
#X connect 7 0 3 0;
