#N canvas 362 138 792 562 10;
#X obj 76 38 inlet;
#X obj 247 493 outlet;
#X obj 247 434 list;
#X obj 422 36 inlet;
#X obj 421 137 max 1;
#X obj 145 144 until;
#N canvas 630 218 292 278 int-check 0;
#X obj 54 38 inlet;
#X obj 132 161 spigot;
#X obj 54 148 spigot;
#X obj 165 138 != 1;
#X obj 54 202 outlet;
#X msg 54 176 \$1 1;
#X obj 54 74 trigger float float;
#X obj 165 109 expr int($f1) == $f1;
#X obj 132 201 outlet;
#X connect 0 0 6 0;
#X connect 1 0 8 0;
#X connect 2 0 5 0;
#X connect 3 0 1 1;
#X connect 5 0 4 0;
#X connect 6 0 1 0;
#X connect 6 0 2 0;
#X connect 6 1 7 0;
#X connect 7 0 2 1;
#X connect 7 0 3 0;
#X restore 76 73 pd int-check;
#X obj 164 118 v f;
#X msg 298 207 prepend \$1 \, bang;
#X obj 298 253 list store;
#X obj 196 118 s \$0-init;
#X obj 355 232 r \$0-init;
#X obj 145 95 t b f b;
#X obj 190 144 r \$0-break;
#X obj 394 421 s \$0-break;
#X obj 394 377 sel 1 0;
#X obj 292 493 outlet;
#X obj 437 271 loadbang;
#X obj 437 292 f \$1;
#X obj 437 314 moses 1;
#X obj 304 434 list;
#X obj 361 329 unpack;
#X obj 298 301 t l l;
#X obj 247 460 unpack, f 8;
#X obj 321 180 v floor;
#N canvas 442 23 431 708 simple-fraction 0;
#X obj 112 37 inlet;
#X obj 211 140 list length;
#X obj 178 195 spigot;
#X obj 74 209 spigot;
#X obj 107 183 == 1;
#X obj 208 245 list split 2;
#X obj 88 328 pack f f;
#X obj 268 292 list split 1;
#X obj 221 292 list;
#X obj 211 169 > 1;
#X obj 268 445 list append;
#X obj 268 518 pack f f;
#X obj 88 350 t b l;
#X obj 169 563 list;
#X obj 74 639 outlet;
#X text 140 66 convert continued fraction to simple fraction, f 26
;
#X obj 112 106 trigger list list;
#X obj 88 444 until;
#X obj 268 473 expr $f1*$f2 + $f3 \; $f2;
#X obj 88 292 expr $f2*$f1 + 1 \; $f1;
#X connect 0 0 16 0;
#X connect 1 0 4 0;
#X connect 1 0 9 0;
#X connect 2 0 5 0;
#X connect 3 0 14 0;
#X connect 4 0 3 1;
#X connect 5 0 19 0;
#X connect 5 1 8 1;
#X connect 6 0 12 0;
#X connect 7 0 10 0;
#X connect 7 1 8 1;
#X connect 7 2 13 0;
#X connect 7 2 17 1;
#X connect 8 0 7 0;
#X connect 9 0 2 1;
#X connect 10 0 18 0;
#X connect 11 0 13 1;
#X connect 11 0 10 1;
#X connect 12 0 17 0;
#X connect 12 1 13 1;
#X connect 12 1 10 1;
#X connect 13 0 14 0;
#X connect 16 0 2 0;
#X connect 16 0 3 0;
#X connect 16 1 1 0;
#X connect 17 0 8 0;
#X connect 18 0 11 0;
#X connect 18 1 11 1;
#X connect 19 0 6 0;
#X connect 19 1 6 1;
#X restore 298 277 pd simple-fraction;
#X obj 394 354 > 500;
#X obj 145 171 expr f = pow(f-floor \, -1) \; floor(f);
#X text 522 181 Alexandre Torres Porres (2019);
#X text 520 200 Part of PSYCHO \; https://github.com/porres/pd-psycho
;
#X connect 0 0 6 0;
#X connect 2 0 23 0;
#X connect 3 0 4 0;
#X connect 4 0 26 1;
#X connect 5 0 27 0;
#X connect 6 0 23 0;
#X connect 6 1 12 0;
#X connect 8 0 9 0;
#X connect 9 0 25 0;
#X connect 11 0 9 1;
#X connect 12 0 5 0;
#X connect 12 1 7 0;
#X connect 12 2 10 0;
#X connect 13 0 5 1;
#X connect 15 0 2 0;
#X connect 15 0 14 0;
#X connect 15 1 20 0;
#X connect 17 0 18 0;
#X connect 18 0 19 0;
#X connect 19 1 26 1;
#X connect 20 0 2 1;
#X connect 21 1 26 0;
#X connect 22 0 21 0;
#X connect 22 1 20 1;
#X connect 23 0 1 0;
#X connect 23 1 16 0;
#X connect 25 0 22 0;
#X connect 26 0 15 0;
#X connect 27 1 8 0;
#X connect 27 1 24 0;
