#N canvas 572 30 683 512 10;
#X msg 298 235 1 1 1;
#X msg 212 235 300 400 600;
#X obj 127 184 bng 15 250 50 0 empty empty empty 17 7 0 10 -228856
-1 -1;
#X msg 127 235 140 280 560;
#X obj 190 387 nbx 10 14 -1e+37 1e+37 0 0 empty empty empty 0 -8 0
10 -228856 -1 -1 0 256;
#X obj 127 292 salience;
#X obj 235 292 salience;
#X obj 127 209 trigger bang bang bang, f 29;
#X text 158 31 Calculate Pitch Distance. This object needs Pitch Salience
Profiles as the input for the pitches. By default \, it calculates
the Pitch Distance of two input pitches.;
#X obj 190 328 distance;
#N canvas 519 150 446 313 3-or-more 0;
#X msg 316 129 1 1 1;
#X msg 236 129 200 300 500;
#X msg 157 129 300 400 600;
#X obj 79 71 bng 15 250 50 0 empty empty empty 17 7 0 10 -228856 -1
-1;
#X msg 79 129 140 280 560;
#X obj 116 195 salience;
#X obj 206 195 salience;
#X obj 271 195 salience;
#X obj 178 230 distance 3;
#X obj 79 97 trigger bang bang bang, f 40;
#X obj 178 257 print distance;
#X text 75 23 The argument can specify 3 or more pitches. The output
is then a matrix of all the pitch combinations.;
#X connect 0 0 5 1;
#X connect 0 0 6 1;
#X connect 0 0 7 1;
#X connect 1 0 7 0;
#X connect 2 0 6 0;
#X connect 3 0 9 0;
#X connect 4 0 5 0;
#X connect 5 0 8 0;
#X connect 6 0 8 1;
#X connect 7 0 8 2;
#X connect 8 0 10 0;
#X connect 9 0 4 0;
#X connect 9 1 1 0;
#X connect 9 1 2 0;
#X connect 9 2 0 0;
#X restore 263 452 pd 3-or-more;
#X msg 550 242 1 1 1;
#X msg 464 242 300 400 600;
#X obj 379 191 bng 15 250 50 0 empty empty empty 17 7 0 10 -228856
-1 -1;
#X msg 379 242 140 280 560;
#X obj 379 387 nbx 10 14 -1e+37 1e+37 0 0 empty empty empty 0 -8 0
10 -228856 -1 -1 0 256;
#X obj 379 299 salience;
#X obj 487 299 salience;
#X obj 379 216 trigger bang bang bang, f 29;
#N canvas 174 42 823 607 distance 0;
#X obj 493 275 *;
#X obj 493 304 *;
#X obj 566 259 abs;
#X obj 566 235 -;
#X obj 456 197 t f f;
#X obj 493 329 +;
#X obj 529 330 f;
#X msg 607 271 0;
#X obj 381 476 *;
#X obj 382 501 sqrt;
#X obj 367 526 -;
#X text 417 555 Pitch-Distance;
#X obj 367 555 outlet;
#X obj 202 22 inlet;
#N canvas 214 42 245 243 loop 0;
#X obj 99 139 f;
#X obj 128 142 + 1;
#X obj 99 115 until;
#X msg 141 115 0;
#X obj 99 88 t f b;
#X msg 99 66 120;
#X obj 99 44 inlet;
#X obj 99 164 outlet;
#X connect 0 0 1 0;
#X connect 0 0 7 0;
#X connect 1 0 0 1;
#X connect 2 0 0 0;
#X connect 3 0 0 1;
#X connect 4 0 2 0;
#X connect 4 1 3 0;
#X connect 5 0 4 0;
#X connect 6 0 5 0;
#X restore 456 122 pd loop;
#X obj 456 149 t b f f, f 16;
#N canvas 214 42 245 243 loop 0;
#X obj 99 139 f;
#X obj 128 142 + 1;
#X obj 99 115 until;
#X msg 141 115 0;
#X obj 99 88 t f b;
#X msg 99 66 120;
#X obj 99 44 inlet;
#X obj 99 164 outlet;
#X connect 0 0 1 0;
#X connect 0 0 7 0;
#X connect 1 0 0 1;
#X connect 2 0 0 0;
#X connect 3 0 0 1;
#X connect 4 0 2 0;
#X connect 4 1 3 0;
#X connect 5 0 4 0;
#X connect 6 0 5 0;
#X restore 456 173 pd loop;
#X obj 456 100 trigger bang bang, f 21;
#X obj 322 295 *;
#X obj 322 324 *;
#X obj 395 279 abs;
#X obj 395 255 -;
#X obj 285 217 t f f;
#X obj 322 349 +;
#X obj 358 350 f;
#X msg 436 280 0;
#N canvas 214 42 245 243 loop 0;
#X obj 99 139 f;
#X obj 128 142 + 1;
#X obj 99 115 until;
#X msg 141 115 0;
#X obj 99 88 t f b;
#X msg 99 66 120;
#X obj 99 44 inlet;
#X obj 99 164 outlet;
#X connect 0 0 1 0;
#X connect 0 0 7 0;
#X connect 1 0 0 1;
#X connect 2 0 0 0;
#X connect 3 0 0 1;
#X connect 4 0 2 0;
#X connect 4 1 3 0;
#X connect 5 0 4 0;
#X connect 6 0 5 0;
#X restore 285 142 pd loop;
#X obj 285 169 t b f f, f 16;
#N canvas 214 42 245 243 loop 0;
#X obj 99 139 f;
#X obj 128 142 + 1;
#X obj 99 115 until;
#X msg 141 115 0;
#X obj 99 88 t f b;
#X msg 99 66 120;
#X obj 99 44 inlet;
#X obj 99 164 outlet;
#X connect 0 0 1 0;
#X connect 0 0 7 0;
#X connect 1 0 0 1;
#X connect 2 0 0 0;
#X connect 3 0 0 1;
#X connect 4 0 2 0;
#X connect 4 1 3 0;
#X connect 5 0 4 0;
#X connect 6 0 5 0;
#X restore 285 193 pd loop;
#X obj 266 113 trigger bang bang bang;
#X obj 266 310 f;
#X obj 116 325 *;
#X obj 116 354 *;
#X obj 189 309 abs;
#X obj 189 285 -;
#X obj 79 247 t f f;
#X obj 116 379 +;
#X obj 152 380 f;
#X msg 230 310 0;
#N canvas 214 42 245 243 loop 0;
#X obj 99 139 f;
#X obj 128 142 + 1;
#X obj 99 115 until;
#X msg 141 115 0;
#X obj 99 88 t f b;
#X msg 99 66 120;
#X obj 99 44 inlet;
#X obj 99 164 outlet;
#X connect 0 0 1 0;
#X connect 0 0 7 0;
#X connect 1 0 0 1;
#X connect 2 0 0 0;
#X connect 3 0 0 1;
#X connect 4 0 2 0;
#X connect 4 1 3 0;
#X connect 5 0 4 0;
#X connect 6 0 5 0;
#X restore 79 172 pd loop;
#X obj 79 199 t b f f, f 16;
#N canvas 214 42 245 243 loop 0;
#X obj 99 139 f;
#X obj 128 142 + 1;
#X obj 99 115 until;
#X msg 141 115 0;
#X obj 99 88 t f b;
#X msg 99 66 120;
#X obj 99 44 inlet;
#X obj 99 164 outlet;
#X connect 0 0 1 0;
#X connect 0 0 7 0;
#X connect 1 0 0 1;
#X connect 2 0 0 0;
#X connect 3 0 0 1;
#X connect 4 0 2 0;
#X connect 4 1 3 0;
#X connect 5 0 4 0;
#X connect 6 0 5 0;
#X restore 79 223 pd loop;
#X obj 60 143 trigger bang bang bang;
#X obj 60 410 f;
#X obj 634 22 inlet;
#X obj 634 76 array set Sal2_\$0;
#X obj 633 124 array define Sal2_\$0 120;
#X obj 459 63 array set Sal1_\$0;
#X obj 632 104 array define Sal1_\$0 120;
#X obj 285 262 tabread Sal1_\$0, f 7;
#X obj 337 262 tabread Sal1_\$0, f 8;
#X obj 131 292 tabread Sal1_\$0, f 8;
#X obj 508 242 tabread Sal2_\$0, f 8;
#X obj 456 242 tabread Sal2_\$0, f 7;
#X obj 79 292 tabread Sal2_\$0, f 7;
#X obj 202 63 trigger bang bang bang list, f 39;
#X connect 0 0 1 0;
#X connect 1 0 5 0;
#X connect 2 0 1 1;
#X connect 3 0 2 0;
#X connect 4 0 53 0;
#X connect 4 1 3 0;
#X connect 5 0 6 0;
#X connect 5 0 8 1;
#X connect 6 0 5 1;
#X connect 7 0 5 1;
#X connect 8 0 9 0;
#X connect 9 0 10 1;
#X connect 10 0 12 0;
#X connect 13 0 55 0;
#X connect 14 0 15 0;
#X connect 15 0 16 0;
#X connect 15 1 52 0;
#X connect 15 2 3 1;
#X connect 16 0 4 0;
#X connect 17 0 14 0;
#X connect 17 1 7 0;
#X connect 18 0 19 0;
#X connect 19 0 23 0;
#X connect 20 0 19 1;
#X connect 21 0 20 0;
#X connect 22 0 49 0;
#X connect 22 1 21 0;
#X connect 23 0 24 0;
#X connect 23 0 30 1;
#X connect 24 0 23 1;
#X connect 25 0 23 1;
#X connect 26 0 27 0;
#X connect 27 0 28 0;
#X connect 27 1 50 0;
#X connect 27 2 21 1;
#X connect 28 0 22 0;
#X connect 29 0 30 0;
#X connect 29 1 26 0;
#X connect 29 2 25 0;
#X connect 30 0 8 0;
#X connect 31 0 32 0;
#X connect 32 0 36 0;
#X connect 33 0 32 1;
#X connect 34 0 33 0;
#X connect 35 0 54 0;
#X connect 35 1 34 0;
#X connect 36 0 37 0;
#X connect 36 0 43 1;
#X connect 37 0 36 1;
#X connect 38 0 36 1;
#X connect 39 0 40 0;
#X connect 40 0 41 0;
#X connect 40 1 51 0;
#X connect 40 2 34 1;
#X connect 41 0 35 0;
#X connect 42 0 43 0;
#X connect 42 1 39 0;
#X connect 42 2 38 0;
#X connect 43 0 10 0;
#X connect 44 0 45 0;
#X connect 49 0 18 0;
#X connect 50 0 18 1;
#X connect 51 0 31 1;
#X connect 52 0 0 1;
#X connect 53 0 0 0;
#X connect 54 0 31 0;
#X connect 55 0 42 0;
#X connect 55 1 29 0;
#X connect 55 2 17 0;
#X connect 55 3 47 0;
#X restore 379 329 pd distance;
#X text 457 328 <= vanilla;
#X text 157 79 It considers the probability of noticing a pitch from
one sonority in another \, but takes into account all possible intervals
between pitches perceived in two sonorities. In the case of identical
sonorities \, the distance is zero \, otherwise it always exceeds zero.
;
#X connect 0 0 5 1;
#X connect 0 0 6 1;
#X connect 1 0 6 0;
#X connect 2 0 7 0;
#X connect 3 0 5 0;
#X connect 5 0 9 0;
#X connect 6 0 9 1;
#X connect 7 0 3 0;
#X connect 7 1 1 0;
#X connect 7 2 0 0;
#X connect 9 0 4 0;
#X connect 11 0 16 1;
#X connect 11 0 17 1;
#X connect 12 0 17 0;
#X connect 13 0 18 0;
#X connect 14 0 16 0;
#X connect 16 0 19 0;
#X connect 17 0 19 1;
#X connect 18 0 14 0;
#X connect 18 1 12 0;
#X connect 18 2 11 0;
#X connect 19 0 15 0;
