#N canvas 653 102 531 425 10;
#X declare -path psycho;
#X text 105 61 rescale amplitudes according to fletcher and munson
\, it takes a list of frequencies in hz (left) and a list of amplitudes
(right inlet), f 45;
#X msg 168 223 100 200 300 400 500 5000;
#X msg 207 259 1 1 1 1 1 1;
#X obj 168 188 t b b;
#X obj 168 163 bng 15 250 50 0 empty empty empty 17 7 0 10 -228856
-1 -1;
#X obj 168 138 loadbang;
#X obj 303 149 declare -path psycho;
#X obj 168 294 flunson;
#X obj 168 327 print amps;
#X connect 1 0 7 0;
#X connect 2 0 7 1;
#X connect 3 0 1 0;
#X connect 3 1 2 0;
#X connect 4 0 3 0;
#X connect 5 0 4 0;
#X connect 7 0 8 0;
