#N canvas 525 246 617 386 10;
#X obj 104 274 harmonicity;
#X floatatom 104 239 5 0 0 0 - - -;
#X floatatom 104 306 8 0 0 0 - - -;
#X floatatom 167 239 5 0 0 0 - - -;
#N canvas 733 306 335 348 harmonicity 0;
#X obj 89 45 inlet;
#X obj 107 278 outlet;
#X obj 204 45 inlet;
#X obj 159 214 +;
#X obj 107 249 /;
#X obj 89 115 t f f;
#X obj 107 189 -;
#X obj 107 162 swap;
#N canvas 64 23 450 300 sgn 0;
#X obj 135 46 inlet;
#X obj 140 106 outlet;
#X obj 137 74 expr if($f1 > 0 \, 1 \, if($f1 < 0 \, -1 \, 0));
#X connect 0 0 2 0;
#X connect 2 0 1 0;
#X restore 107 214 pd sgn;
#N canvas 521 188 721 483 ind 0;
#X obj 116 22 inlet;
#X obj 242 178 v p;
#X msg 242 153 2;
#X obj 201 204 v n;
#X obj 174 178 t b f;
#X obj 174 235 until;
#X obj 174 262 expr n % p == 0;
#X obj 202 309 expr p = p + 1;
#X obj 242 217 expr n = n/p;
#X obj 242 237 sel 1;
#X obj 174 286 select 1 0;
#X obj 155 153 t b f b;
#X obj 116 426 outlet;
#X msg 178 72 2;
#X obj 178 96 pow 24;
#X obj 178 50 loadbang;
#X obj 116 94 int;
#X obj 116 128 moses 2;
#X obj 241 128 v ind;
#X msg 241 105 0;
#X obj 155 361 v ind;
#X obj 116 72 clip 1;
#X msg 116 153 0;
#X obj 174 331 expr ind + (2 * (p-1) * (p-1)/p);
#X text 312 123 Clarence Barlow's indigestibility of an integer. A
measure of how a number may be psychologically 'digestible' according
to its prime factors. See Barlow \, C \, "Two Essays on Theory" \,
Computer Music Journal \, 1987, f 63;
#X connect 0 0 21 0;
#X connect 2 0 1 0;
#X connect 4 0 5 0;
#X connect 4 1 3 0;
#X connect 5 0 6 0;
#X connect 6 0 10 0;
#X connect 8 0 9 0;
#X connect 9 0 5 1;
#X connect 10 0 8 0;
#X connect 10 0 23 0;
#X connect 10 1 7 0;
#X connect 11 0 20 0;
#X connect 11 1 4 0;
#X connect 11 2 2 0;
#X connect 11 2 19 0;
#X connect 13 0 14 0;
#X connect 14 0 21 2;
#X connect 15 0 13 0;
#X connect 16 0 17 0;
#X connect 17 0 22 0;
#X connect 17 1 11 0;
#X connect 19 0 18 0;
#X connect 20 0 12 0;
#X connect 21 0 16 0;
#X connect 22 0 12 0;
#X connect 23 0 20 0;
#X restore 159 174 pd ind;
#N canvas 624 169 721 520 ind 0;
#X obj 116 22 inlet;
#X obj 242 178 v p;
#X msg 242 153 2;
#X obj 201 204 v n;
#X obj 174 178 t b f;
#X obj 174 235 until;
#X obj 174 262 expr n % p == 0;
#X obj 202 309 expr p = p + 1;
#X obj 242 217 expr n = n/p;
#X obj 242 237 sel 1;
#X obj 174 286 select 1 0;
#X obj 155 153 t b f b;
#X obj 116 426 outlet;
#X msg 178 72 2;
#X obj 178 96 pow 24;
#X obj 178 50 loadbang;
#X obj 116 94 int;
#X obj 116 128 moses 2;
#X obj 241 128 v ind;
#X msg 241 105 0;
#X obj 155 361 v ind;
#X obj 116 72 clip 1;
#X msg 116 153 0;
#X obj 174 331 expr ind + (2 * (p-1) * (p-1)/p);
#X text 312 123 Clarence Barlow's indigestibility of an integer. A
measure of how a number may be psychologically 'digestible' according
to its prime factors. See Barlow \, C \, "Two Essays on Theory" \,
Computer Music Journal \, 1987, f 63;
#X connect 0 0 21 0;
#X connect 2 0 1 0;
#X connect 4 0 5 0;
#X connect 4 1 3 0;
#X connect 5 0 6 0;
#X connect 6 0 10 0;
#X connect 8 0 9 0;
#X connect 9 0 5 1;
#X connect 10 0 8 0;
#X connect 10 0 23 0;
#X connect 10 1 7 0;
#X connect 11 0 20 0;
#X connect 11 1 4 0;
#X connect 11 2 2 0;
#X connect 11 2 19 0;
#X connect 13 0 14 0;
#X connect 14 0 21 2;
#X connect 15 0 13 0;
#X connect 16 0 17 0;
#X connect 17 0 22 0;
#X connect 17 1 11 0;
#X connect 19 0 18 0;
#X connect 20 0 12 0;
#X connect 21 0 16 0;
#X connect 22 0 12 0;
#X connect 23 0 20 0;
#X restore 204 174 pd ind;
#X obj 89 87 unpack, f 7;
#X connect 0 0 11 0;
#X connect 2 0 10 0;
#X connect 2 0 7 1;
#X connect 3 0 4 1;
#X connect 4 0 1 0;
#X connect 5 0 7 0;
#X connect 5 1 9 0;
#X connect 6 0 8 0;
#X connect 7 0 6 0;
#X connect 7 1 6 1;
#X connect 8 0 4 0;
#X connect 9 0 3 0;
#X connect 10 0 3 1;
#X connect 11 0 5 0;
#X connect 11 1 7 1;
#X connect 11 1 10 0;
#X restore 254 260 pd harmonicity;
#X floatatom 254 299 8 0 0 0 - - -;
#X text 351 260 <= vanilla implementation;
#X text 90 238 p;
#X text 203 238 q;
#X text 106 37 Barlow's harmonicity measure for an interval p/q. It
is defined as the reciprocal of the sum of the indigestibilties of
p and q \, with its sign indicating the interval's polarity., f 65
;
#X text 106 90 Negative polarity means that the interval is weighted
towards its upper tone and a positive number towards its lower tone.
As an example \, a perfect fifth has its 'weight' on the lower tone
\, while its a perfect fourth has its weight on the highest tone. The
absolute value of a harmonicity is called harmonic intensity., f 65
;
#X text 106 161 For more details \, see Barlow \, C \, "Two Essays
on Theory" \, Computer Music Journal \, 1987, f 65;
#X floatatom 254 239 5 0 0 0 - - -;
#X floatatom 335 239 5 0 0 0 - - -;
#X text 240 238 p;
#X text 371 238 q;
#X connect 0 0 2 0;
#X connect 1 0 0 0;
#X connect 3 0 0 1;
#X connect 4 0 5 0;
#X connect 12 0 4 0;
#X connect 13 0 4 1;
