#N canvas 475 143 559 357 10;
#X obj 97 142 hz2bark;
#X floatatom 97 77 0 0 0 0 - - -;
#X floatatom 97 234 0 0 0 0 - - -;
#X obj 182 119 moses 219.5;
#X obj 182 146 expr 13.3 * atan(3*$f1/4000);
#X obj 232 202 moses 20.1;
#X floatatom 232 258 0 0 0 0 - - -;
#X text 86 24 Convert frequency to barks as suggested by Clarence Barlow
;
#X text 189 94 Vanilla implementation;
#X text 101 59 Hz;
#X text 95 256 barks;
#X text 228 278 barks;
#X obj 289 228 expr $f1 + 0.22 * ($f1 - 20.1);
#X obj 232 176 expr 26.81*$f1/(1960 + $f1) - 0.53;
#X floatatom 311 202 0 0 0 0 - - -;
#X connect 0 0 2 0;
#X connect 1 0 0 0;
#X connect 1 0 3 0;
#X connect 3 0 4 0;
#X connect 3 1 13 0;
#X connect 4 0 6 0;
#X connect 5 0 6 0;
#X connect 5 1 12 0;
#X connect 5 1 14 0;
#X connect 12 0 6 0;
#X connect 13 0 5 0;
