#N canvas 180 224 448 542 10;
#X floatatom 145 142 5 0 0 0 - - -;
#X floatatom 208 145 5 0 0 0 - - -;
#X obj 145 214 nbx 5 14 -1e+37 1e+37 0 0 empty empty empty 0 -8 0 10
-228856 -1 -1 0 256;
#X text 208 127 Hertz;
#X text 144 122 phon;
#X obj 80 53 phon2db;
#X text 226 177 argument (hz);
#X text 137 43 convert phons to dB \, it takes a Hz value (right inlet
or argument) and a value in Phons (left inlet), f 35;
#X obj 145 179 phon2db 100;
#X text 26 289 The unit measure of loudess (perceived intensity) is
phons. Two different frequencies at 60 decibel may have a different
loudness because the human hearing sensitivity varies with frequency.
, f 61;
#X text 26 343 The loudness curves shows this variation and uses 1Khz
as the reference value. Therefore \, 60 phons means "as loud as a 60
dB \, 1000 Hz tone", f 61;
#X text 26 263 Phons:;
#X text 26 387 It is useful to plot equal loudness curves which show
that variation for the average human ear. These can then be used to
adjust the sound gain.;
#X connect 0 0 8 0;
#X connect 1 0 8 1;
#X connect 8 0 2 0;
