#N canvas 479 209 743 433 10;
#X obj 122 122 t b l;
#X obj 122 41 inlet~;
#N canvas 750 289 307 233 loop 0;
#X obj 73 44 inlet;
#X obj 73 113 until;
#X obj 73 83 t f b;
#X obj 112 144 f;
#X obj 112 169 outlet;
#X msg 127 115 0;
#X obj 143 144 + 1;
#X connect 0 0 2 0;
#X connect 1 0 3 0;
#X connect 2 0 1 0;
#X connect 2 1 5 0;
#X connect 3 0 4 0;
#X connect 3 0 6 0;
#X connect 5 0 3 1;
#X connect 6 0 3 1;
#X restore 141 222 pd loop;
#X msg 122 171 24;
#X obj 159 152 array set bands_\$0;
#X obj 222 119 array define bands_\$0 24;
#X obj 335 216 v g_\$0;
#X obj 212 216 v temp_\$0;
#X obj 279 216 v sl_\$0;
#X obj 141 247 expr temp_\$0 = temp_\$0 + $f1 * g_\$0 * sl_\$0 \; sl_\$0
= pow(bands_\$0[$f1] \, 0.23) \; g_\$0 = if($f1 < 15 \, 1 \, 0.66 *
exp(0.171 * $f1));
#X obj 122 305 expr 0.11 * temp_\$0/24.;
#X obj 122 197 t b f b;
#X msg 212 196 0;
#X obj 123 340 outlet;
#X obj 203 42 inlet;
#X obj 122 95 ./barks~ \$1 \$2;
#X text 446 147 Alexandre Torres Porres (2019);
#X text 444 166 Part of PSYCHO \; https://github.com/porres/pd-psycho
;
#X connect 0 0 3 0;
#X connect 0 1 4 0;
#X connect 1 0 15 0;
#X connect 2 0 9 0;
#X connect 3 0 11 0;
#X connect 10 0 13 0;
#X connect 11 0 10 0;
#X connect 11 1 2 0;
#X connect 11 2 12 0;
#X connect 12 0 7 0;
#X connect 14 0 15 1;
#X connect 15 0 0 0;
