#N canvas 780 23 524 354 10;
#X obj 98 102 bng 15 250 50 0 empty empty empty 17 7 0 10 -228856 -1
-1;
#X obj 113 237 print YL;
#X obj 98 267 print Hz;
#X obj 98 124 t b b;
#X msg 113 184 1 0.9 0.8;
#X msg 98 152 100 150 200;
#X obj 272 94 bng 15 250 50 0 empty empty empty 17 7 0 10 -228856 -1
-1;
#X obj 299 225 print YL;
#X obj 272 255 print Hz;
#X obj 272 116 t b b, f 7;
#X msg 318 168 1 0.9 0.8;
#X msg 272 144 100 150 200;
#X text 313 194 <= vanilla implementation;
#X obj 98 207 yl;
#N canvas 544 79 376 391 YL 0;
#X obj 237 189 list store;
#X obj 124 97 until;
#X obj 124 210 list store;
#X obj 124 125 f;
#X obj 152 125 + 1;
#X msg 171 97 0, f 2;
#X msg 124 154 get \$1 1;
#X obj 124 185 t a a;
#X obj 114 295 list store, f 16;
#X msg 124 266 append \$1;
#X obj 294 38 inlet;
#X obj 67 40 inlet;
#X obj 114 331 outlet;
#X obj 67 331 outlet;
#X obj 67 70 trigger list bang bang bang list;
#N canvas 580 226 601 472 get-Lth 0;
#X obj 133 48 inlet;
#X obj 272 378 outlet;
#X obj 154 184 exp;
#X obj 75 247 expr (3.64 * pow($f1 \, -0.8));
#X obj 154 161 expr -0.6 * pow($f1 - 3.3 \, 2);
#X obj 343 160 expr (pow(10 \, -3) * pow($f1 \, 4));
#X obj 133 109 trigger float float float;
#X obj 154 206 * 6.5;
#X obj 178 299 expr $f1 - $f2 + $f3;
#X text 147 300 Lth;
#X obj 133 76 / 1000;
#X obj 272 346 expr $f2 - $f1;
#X obj 375 59 inlet;
#X text 423 112 dB;
#X obj 373 113 rmstodb;
#X connect 0 0 10 0;
#X connect 2 0 7 0;
#X connect 3 0 8 0;
#X connect 4 0 2 0;
#X connect 5 0 8 2;
#X connect 6 0 3 0;
#X connect 6 1 4 0;
#X connect 6 2 5 0;
#X connect 7 0 8 1;
#X connect 8 0 11 0;
#X connect 10 0 6 0;
#X connect 11 0 1 0;
#X connect 12 0 14 0;
#X connect 14 0 11 1;
#X restore 124 239 pd get-Lth;
#X connect 0 0 15 1;
#X connect 1 0 3 0;
#X connect 2 0 15 0;
#X connect 2 1 1 1;
#X connect 3 0 4 0;
#X connect 3 0 6 0;
#X connect 4 0 3 1;
#X connect 5 0 3 1;
#X connect 6 0 7 0;
#X connect 7 0 2 0;
#X connect 7 1 0 0;
#X connect 8 0 12 0;
#X connect 9 0 8 0;
#X connect 10 0 0 1;
#X connect 11 0 14 0;
#X connect 14 0 13 0;
#X connect 14 1 8 0;
#X connect 14 2 1 0;
#X connect 14 3 8 1;
#X connect 14 3 5 0;
#X connect 14 4 2 1;
#X connect 15 0 9 0;
#X restore 272 195 pd YL;
#X text 56 28 Get auditory levels (YL) \, defined as dB over the partial’s
Level Threshold L(TH) (according to Parncutt & Strasburger \, 1994).
;
#X text 175 152 Freq;
#X text 175 179 Linear amplitude, f 9;
#X connect 0 0 3 0;
#X connect 3 0 5 0;
#X connect 3 1 4 0;
#X connect 4 0 13 1;
#X connect 5 0 13 0;
#X connect 6 0 9 0;
#X connect 9 0 11 0;
#X connect 9 1 10 0;
#X connect 10 0 14 1;
#X connect 11 0 14 0;
#X connect 13 0 2 0;
#X connect 13 1 1 0;
#X connect 14 0 8 0;
#X connect 14 1 7 0;
